HIERARCHY
ROOT Hips
{
	OFFSET 0.00000 0.00000 0.00000
	CHANNELS 6 Xposition Yposition Zposition Zrotation Yrotation Xrotation 
	JOINT LHipJoint
	{
		OFFSET 0 0 0
		CHANNELS 3 Zrotation Yrotation Xrotation
		JOINT LeftUpLeg
		{
			OFFSET 1.57338 -1.94743 0.52196
			CHANNELS 3 Zrotation Yrotation Xrotation
			JOINT LeftLeg
			{
				OFFSET 2.60333 -7.15259 0.00000
				CHANNELS 3 Zrotation Yrotation Xrotation
				JOINT LeftFoot
				{
					OFFSET 2.77855 -7.63400 0.00000
					CHANNELS 3 Zrotation Yrotation Xrotation
					JOINT LeftToeBase
					{
						OFFSET 0.19847 -0.54529 2.28466
						CHANNELS 3 Zrotation Yrotation Xrotation
						End Site
						{
							OFFSET 0.00000 -0.00000 1.17993
						}
					}
				}
			}
		}
	}
	JOINT RHipJoint
	{
		OFFSET 0 0 0
		CHANNELS 3 Zrotation Yrotation Xrotation
		JOINT RightUpLeg
		{
			OFFSET -1.61527 -1.94743 0.52196
			CHANNELS 3 Zrotation Yrotation Xrotation
			JOINT RightLeg
			{
				OFFSET -2.53829 -6.97390 0.00000
				CHANNELS 3 Zrotation Yrotation Xrotation
				JOINT RightFoot
				{
					OFFSET -2.80762 -7.71387 0.00000
					CHANNELS 3 Zrotation Yrotation Xrotation
					JOINT RightToeBase
					{
						OFFSET -0.30536 -0.83898 2.28801
						CHANNELS 3 Zrotation Yrotation Xrotation
						End Site
						{
							OFFSET -0.00000 -0.00000 1.21323
						}
					}
				}
			}
		}
	}
	JOINT LowerBack
	{
		OFFSET 0 0 0
		CHANNELS 3 Zrotation Yrotation Xrotation
		JOINT Spine
		{
			OFFSET -0.04381 1.99497 -0.19778
			CHANNELS 3 Zrotation Yrotation Xrotation
			JOINT Spine1
			{
				OFFSET -0.01959 2.01295 -0.04372
				CHANNELS 3 Zrotation Yrotation Xrotation
				JOINT Neck
				{
					OFFSET 0 0 0
					CHANNELS 3 Zrotation Yrotation Xrotation
					JOINT Neck1
					{
						OFFSET -0.05459 1.76913 0.09708
						CHANNELS 3 Zrotation Yrotation Xrotation
						JOINT Head
						{
							OFFSET 0.09461 1.77368 -0.11172
							CHANNELS 3 Zrotation Yrotation Xrotation
							End Site
							{
								OFFSET 0.03812 1.78157 -0.04834
							}
						}
					}
				}
				JOINT LeftShoulder
				{
					OFFSET 0 0 0
					CHANNELS 3 Zrotation Yrotation Xrotation
					JOINT LeftArm
					{
						OFFSET 3.50922 1.24034 -0.28866
						CHANNELS 3 Zrotation Yrotation Xrotation
						JOINT LeftForeArm
						{
							OFFSET 5.40188 -0.00000 0.00000
							CHANNELS 3 Zrotation Yrotation Xrotation
							JOINT LeftHand
							{
								OFFSET 3.68559 -0.00000 0.00000
								CHANNELS 3 Zrotation Yrotation Xrotation
								JOINT LeftFingerBase
								{
									OFFSET 0 0 0
									CHANNELS 3 Zrotation Yrotation Xrotation
									JOINT LeftHandIndex1
									{
										OFFSET 0.61753 -0.00000 0.00000
										CHANNELS 3 Zrotation Yrotation Xrotation
										End Site
										{
											OFFSET 0.49787 -0.00000 0.00000
										}
									}
								}
								JOINT LThumb
								{
									OFFSET 0 0 0
									CHANNELS 3 Zrotation Yrotation Xrotation
									End Site
									{
										OFFSET 0.50547 -0.00000 0.50547
									}
								}
							}
						}
					}
				}
				JOINT RightShoulder
				{
					OFFSET 0 0 0
					CHANNELS 3 Zrotation Yrotation Xrotation
					JOINT RightArm
					{
						OFFSET -2.95373 1.39649 -0.27346
						CHANNELS 3 Zrotation Yrotation Xrotation
						JOINT RightForeArm
						{
							OFFSET -6.10670 -0.00000 -0.00000
							CHANNELS 3 Zrotation Yrotation Xrotation
							JOINT RightHand
							{
								OFFSET -3.63052 -0.00000 0.00000
								CHANNELS 3 Zrotation Yrotation Xrotation
								JOINT RightFingerBase
								{
									OFFSET 0 0 0
									CHANNELS 3 Zrotation Yrotation Xrotation
									JOINT RightHandIndex1
									{
										OFFSET -0.58385 -0.00000 0.00000
										CHANNELS 3 Zrotation Yrotation Xrotation
										End Site
										{
											OFFSET -0.47071 -0.00000 0.00000
										}
									}
								}
								JOINT RThumb
								{
									OFFSET 0 0 0
									CHANNELS 3 Zrotation Yrotation Xrotation
									End Site
									{
										OFFSET -0.47790 -0.00000 0.47790
									}
								}
							}
						}
					}
				}
			}
		}
	}
}
MOTION
Frames: 7
Frame Time: 0.0333333
7.6355 18.7436 8.0529 0 0 0 0 0 0 -21 0 0 0 0 0 0 0 0 0 0 0 0 0 0 21 0 0 0 0 0 0 0 0 0 0 0 0 0 0 0 0 0 0 0 0 0 0 -16 0 0 21 0 0 11 0 0 0 -8 0 0 0 0 0 0 0 0 0 0 0 0 0 0 0 0 0 0 0 0 8 0 0 0 0 0 0 0 0 0 0 0 0 0 0 0 0 0
0.6630 21.8647 2.9461 174.7090 -0.5261 -171.7730 0.0000 0.0000 0.0000 -33.9968 8.3228 -52.9974 11.1350 18.0005 63.2192 1.5549 -3.9078 -22.6334 0.0298 1.1153 3.0660 0.0000 0.0000 0.0000 8.1424 24.5580 -28.6939 -10.4153 -17.6369 60.8676 -0.1631 0.6013 7.8699 -0.0007 0.1728 -0.4749 -7.1583 0.5141 21.4111 -2.7620 -2.0420 3.5774 1.6782 -1.1729 -7.9478 -6.5032 -0.4150 -13.1726 4.7529 0.2764 17.9816 2.6987 0.2940 7.6978 0.0000 0.0000 0.0000 -71.7375 -51.9677 23.6458 112.3951 -58.0174 -79.2656 -0.0000 0.0000 -32.6775 25.3497 45.4181 18.6461 -7.1250 0.0000 -0.0000 -28.4133 76.9144 -21.5662 0.0000 0.0000 0.0000 70.6822 27.6218 27.4320 -89.2774 59.9980 -59.3742 0.0000 0.0000 4.3022 -43.8972 2.6741 -2.5705 7.1250 -0.0000 -0.0000 -13.0641 -26.2246 -6.0965
0.5136 22.1309 2.9387 174.7640 0.3934 -172.5520 0.0000 0.0000 0.0000 -33.8816 8.0172 -50.2629 10.2312 17.5378 60.2583 1.3193 -2.3907 -21.0609 0.0000 -0.0449 -0.1234 0.0000 0.0000 0.0000 7.2732 22.6835 -31.6820 -12.5558 -18.6158 67.7399 -0.0422 0.2587 3.9831 -0.0130 0.7367 -2.0245 -7.4091 -0.6491 22.3213 -2.7766 -1.9669 3.7366 1.6916 -0.3977 -8.1618 -6.5819 -0.3374 -13.0699 4.7039 0.4477 18.6290 2.7268 0.3776 7.8838 0.0000 0.0000 0.0000 -73.4837 -50.0124 24.1382 113.2750 -57.8507 -80.0113 -0.0000 0.0000 -31.4355 27.1170 45.2378 19.9817 -7.1250 0.0000 -0.0000 -25.4575 77.4770 -19.5548 0.0000 0.0000 0.0000 71.0114 28.0340 28.8640 -84.9216 59.9023 -55.6034 0.0000 0.0000 4.2248 -43.7083 2.9705 -2.8359 7.1250 -0.0000 -0.0000 -12.8699 -25.8385 -6.1208
0.3480 22.4080 2.9323 174.8870 1.5766 -172.3590 0.0000 0.0000 0.0000 -33.9671 7.4827 -48.5631 9.2731 16.9803 57.0297 1.0821 -1.1494 -19.3146 0.0063 -0.5108 -1.4035 0.0000 0.0000 0.0000 6.0496 20.9096 -35.8960 -14.6641 -19.3032 74.2229 -0.0029 -0.1336 -1.0744 -0.1065 2.1039 -5.7929 -7.1275 -0.6300 22.0720 -2.6631 -1.8634 3.7857 1.6266 -0.3726 -7.9918 -6.5418 -0.3521 -12.9624 4.3801 0.4888 18.7831 2.6186 0.3702 7.9159 -0.0000 0.0000 0.0000 -75.1975 -47.6390 24.8654 113.7312 -57.7613 -80.3973 -0.0000 0.0000 -29.8177 26.0841 43.2992 18.5588 -7.1250 0.0000 -0.0000 -21.9583 75.4573 -15.9071 -0.0000 0.0000 0.0000 71.0868 28.5466 29.5835 -80.5805 59.6621 -51.8517 0.0000 0.0000 4.3847 -43.4082 3.7971 -3.5845 7.1250 -0.0000 -0.0000 -12.4985 -24.7530 -6.2600
0.1835 22.6952 2.9218 174.7350 3.3274 -172.6160 0.0000 0.0000 0.0000 -34.4694 7.6929 -46.1858 8.2001 16.2645 53.2802 0.8638 -0.0393 -17.5574 0.0041 -0.4158 -1.1424 0.0000 0.0000 0.0000 4.6397 19.2723 -39.6385 -16.6129 -19.7227 80.0526 -0.0600 -1.0064 -5.1130 -0.0603 1.5848 -4.3595 -6.9635 -0.4193 22.9516 -2.9529 -1.6921 3.4862 1.1738 -0.2714 -8.8228 -6.1832 -0.3483 -12.5952 4.4706 0.4105 19.0453 2.5845 0.3760 7.9409 -0.0000 -0.0000 0.0000 -75.9347 -44.8748 25.2692 113.8032 -57.7470 -80.4582 -0.0000 0.0000 -28.1983 24.8137 40.7414 16.7914 -7.1250 0.0000 -0.0000 -18.7406 72.7373 -12.4556 -0.0000 -0.0000 0.0000 71.9563 28.4665 30.5518 -74.2173 59.0376 -46.3760 0.0000 0.0000 5.7824 -46.8946 7.3567 -7.7901 7.1250 -0.0000 -0.0000 -14.2207 -19.4396 -8.9552
0.0416 22.9465 2.9409 174.9900 6.1333 -173.1710 0.0000 0.0000 0.0000 -34.5306 8.8961 -44.2625 7.2375 15.5287 49.7671 0.7155 0.5875 -16.2053 0.0002 -0.1000 -0.2748 0.0000 0.0000 0.0000 3.7971 18.7783 -43.4656 -18.5874 -19.9521 85.8666 -0.1329 -1.7982 -7.7933 -0.1182 2.2168 -6.1052 -7.4568 0.3543 23.9381 -2.7936 -0.8262 3.6816 1.3680 0.1811 -9.1671 -6.2828 -0.3612 -13.1270 4.4070 0.4279 19.0697 2.5851 0.3626 8.0442 -0.0000 -0.0000 0.0000 -76.7658 -43.3117 25.1688 113.6292 -57.7814 -80.3111 -0.0000 0.0000 -25.9718 22.6257 39.1098 14.7304 -7.1250 0.0000 -0.0000 -19.0989 70.5127 -11.7736 -0.0000 -0.0000 0.0000 71.8797 29.1306 31.1853 -71.9323 58.7299 -44.4197 0.0000 0.0000 4.9201 -44.1899 5.2353 -5.0690 7.1250 -0.0000 -0.0000 -12.7888 -22.7411 -7.0222
-0.0827 23.1898 2.9855 175.3480 8.8243 -173.6850 0.0000 0.0000 0.0000 -34.4135 9.9792 -42.7184 6.3906 14.7965 46.5300 0.5217 1.9615 -14.4966 0.0897 -1.9312 -5.3156 0.0000 0.0000 0.0000 3.1909 18.6412 -47.9022 -20.5527 -19.9927 91.6161 -0.1934 -2.5143 -9.6280 -0.1329 2.3502 -6.4744 -7.6884 1.1660 25.4913 -2.9479 0.0258 3.5843 1.0286 0.6315 -10.1558 -5.5413 -0.5216 -13.1032 4.1342 0.0808 18.8741 2.3289 0.2178 7.9950 -0.0000 0.0000 0.0000 -77.0715 -41.3834 25.7370 114.3912 -57.6282 -80.9552 -0.0000 0.0000 -24.3365 23.1489 37.2527 14.5102 -7.1250 0.0000 -0.0000 -15.9948 68.9567 -9.2712 -0.0000 0.0000 0.0000 72.2904 29.4331 31.6064 -69.8142 58.4030 -42.6124 0.0000 0.0000 3.6547 -42.7067 4.6392 -4.2693 7.1250 -0.0000 -0.0000 -11.8404 -23.6960 -6.2123
